<?xml version="1.0" encoding="UTF-8" standalone="no"?>
<svg
   xmlns:dc="http://purl.org/dc/elements/1.1/"
   xmlns:cc="http://creativecommons.org/ns#"
   xmlns:rdf="http://www.w3.org/1999/02/22-rdf-syntax-ns#"
   xmlns:svg="http://www.w3.org/2000/svg"
   xmlns="http://www.w3.org/2000/svg"
   xmlns:sodipodi="http://sodipodi.sourceforge.net/DTD/sodipodi-0.dtd"
   xmlns:inkscape="http://www.inkscape.org/namespaces/inkscape"
   viewBox="0 0 700 700"
   version="1.1"
   id="svg5"
   sodipodi:docname="serasa-logo.svg"
   width="700"
   height="700"
   inkscape:version="0.92.4 (5da689c313, 2019-01-14)"
   inkscape:export-filename="C:\Users\suitedoalex\sites\serasa-logo-0.png"
   inkscape:export-xdpi="561.73712"
   inkscape:export-ydpi="561.73712">
  <metadata
     id="metadata11">
    <rdf:RDF>
      <cc:Work
         rdf:about="">
        <dc:format>image/svg+xml</dc:format>
        <dc:type
           rdf:resource="http://purl.org/dc/dcmitype/StillImage" />
        <dc:title></dc:title>
      </cc:Work>
    </rdf:RDF>
  </metadata>
  <defs
     id="defs9" />
  <sodipodi:namedview
     pagecolor="#ffffff"
     bordercolor="#666666"
     borderopacity="1"
     objecttolerance="10"
     gridtolerance="10"
     guidetolerance="10"
     inkscape:pageopacity="0"
     inkscape:pageshadow="2"
     inkscape:window-width="1600"
     inkscape:window-height="837"
     id="namedview7"
     showgrid="false"
     inkscape:zoom="0.32617188"
     inkscape:cx="734.88132"
     inkscape:cy="91.289275"
     inkscape:window-x="-8"
     inkscape:window-y="-8"
     inkscape:window-maximized="1"
     inkscape:current-layer="svg5" />
  <g
     id="serasa-white-xlg"
     style="fill:currentColor;fill-rule:evenodd;stroke:none;stroke-width:1"
     transform="translate(93.836728,231.25489)"
     inkscape:export-filename="C:\Users\suitedoalex\sites\serasa-logo-2.png"
     inkscape:export-xdpi="270.71133"
     inkscape:export-ydpi="270.71133">
    <g
       id="serasa-marca-white"
       transform="translate(0,11)"
       style="fill:currentColor">
      <path
         d="m 101.01683,78.524632 c 6.79972,0.197614 13.14134,1.915508 18.63186,6.018245 1.42821,1.073404 2.67453,2.530807 3.61095,4.046597 1.16997,1.893052 1.16997,4.026386 -0.2313,5.910456 -1.43494,1.92 -3.46723,2.982175 -5.78245,2.497123 -2.21418,-0.467088 -4.43734,-1.29572 -6.40449,-2.41179 -3.93657,-2.23214 -8.04604,-3.426807 -12.546251,-2.820491 -1.509052,0.204351 -3.096701,0.644491 -4.417122,1.378807 -4.336281,2.425263 -4.949334,7.936001 -1.232842,11.692911 1.565193,1.58765 3.473965,2.92379 5.434386,4.01516 4.837049,2.69923 9.838039,5.14021 14.704279,7.79677 4.36548,2.39832 8.20323,5.4299 10.54765,9.95481 5.78021,11.1113 1.86611,23.04673 -9.35523,28.63607 -10.43312,5.18961 -26.183857,3.32351 -34.865401,-4.14316 -1.661755,-1.42597 -3.069755,-3.06975 -3.496421,-5.28393 -0.947649,-4.98751 3.694035,-8.62765 8.699509,-6.74133 1.744842,0.65572 3.379649,1.67073 4.983017,2.65431 4.621474,2.82948 9.550597,4.19481 14.980496,3.32351 2.75312,-0.44688 5.20757,-1.47761 6.82442,-3.87368 2.16028,-3.19551 1.47087,-7.09165 -1.80997,-10.49825 -2.65207,-2.76884 -5.95088,-4.61024 -9.328279,-6.31466 -4.044351,-2.03678 -8.153825,-3.94555 -12.099369,-6.15299 -4.477754,-2.49487 -8.106666,-5.93515 -10.09628,-10.76323 -4.07579,-9.925609 -0.372772,-20.118451 9.105965,-25.375434 4.401403,-2.438737 9.153122,-3.458245 14.142873,-3.545824 z m 273.28607,0 c 6.79972,0.197614 13.13908,1.915508 18.63186,6.018245 1.42596,1.073404 2.67228,2.530807 3.6087,4.046597 1.17221,1.893052 1.17221,4.026386 -0.22905,5.910456 -1.43495,1.92 -3.46723,2.982175 -5.78246,2.497123 -2.21642,-0.467088 -4.43733,-1.29572 -6.40674,-2.41179 -3.93431,-2.23214 -8.04379,-3.426807 -12.544,-2.820491 -1.50905,0.204351 -3.0967,0.644491 -4.41937,1.378807 -4.33403,2.425263 -4.94708,7.936001 -1.23284,11.692911 1.56744,1.58765 3.47397,2.92379 5.43663,4.01516 4.83481,2.69923 9.83804,5.14021 14.70428,7.79677 4.36548,2.39832 8.20323,5.4299 10.54765,9.95481 5.77797,11.1113 1.86386,23.04673 -9.35747,28.63607 -10.43088,5.18961 -26.18161,3.32351 -34.86316,-4.14316 -1.66175,-1.42597 -3.06975,-3.06975 -3.49642,-5.28393 -0.94765,-4.98751 3.69404,-8.62765 8.69726,-6.74133 1.74709,0.65572 3.3819,1.67073 4.98302,2.65431 4.62372,2.82948 9.55284,4.19481 14.98274,3.32351 2.75088,-0.44688 5.20758,-1.47761 6.82442,-3.87368 2.16028,-3.19551 1.46863,-7.09165 -1.81221,-10.49825 -2.64983,-2.76884 -5.94863,-4.61024 -9.32828,-6.31466 -4.04435,-2.03678 -8.15383,-3.94555 -12.09713,-6.15299 -4.47775,-2.49487 -8.10666,-5.93515 -10.09852,-10.76323 -4.07354,-9.925609 -0.37277,-20.118451 9.10821,-25.375434 4.4014,-2.438737 9.15312,-3.458245 14.14288,-3.545824 z m -74.58673,0.394778 c 10.14793,0 19.37965,3.822036 26.45109,10.094036 v 0 -3.21572 c 0,-3.36393 3.06751,-6.269754 6.6066,-6.269754 3.22919,0 6.46063,2.905824 6.46063,6.269754 v 0 65.169964 c 0,3.36168 -3.23144,6.26751 -6.46063,6.26751 -3.53909,0 -6.6066,-2.90583 -6.6066,-6.26751 v 0 -3.21572 c -7.07144,6.272 -16.30316,10.09628 -26.45109,10.09628 -22.13501,0 -39.81249,-17.5854 -39.81249,-39.62386 0,-21.715085 17.67748,-39.30498 39.81249,-39.30498 z m 145.27417,0 c 10.15017,0 19.38189,3.822036 26.44884,10.094036 v 0 -3.21572 c 0,-3.36393 3.06975,-6.269754 6.60884,-6.269754 3.22919,0 6.45839,2.905824 6.45839,6.269754 v 0 65.169964 c 0,3.36168 -3.2292,6.26751 -6.45839,6.26751 -3.53909,0 -6.60884,-2.90583 -6.60884,-6.26751 v 0 -3.21572 c -7.06695,6.272 -16.29867,10.09628 -26.44884,10.09628 -22.13278,0 -39.81025,-17.5854 -39.81025,-39.62386 0,-21.715085 17.67747,-39.30498 39.81025,-39.30498 z M 172.7038,78.91721 c 21.21206,0 39.20168,17.131789 39.51157,37.17164 0,3.50316 -2.46568,6.20913 -5.35803,6.87383 -0.0876,0.027 -0.17965,0.0337 -0.26948,0.0561 -0.17515,0.0337 -0.34582,0.0876 -0.52547,0.10331 v 0 h -0.28295 c -0.0404,0 -0.0831,0.0135 -0.12351,0.0135 v 0 h -59.24378 c 2.31073,12.54625 13.07171,21.56014 26.29165,21.56014 6.91424,0 13.52308,-2.14232 17.98287,-6.88056 1.3833,-1.37881 3.22919,-2.60491 5.23004,-2.60491 3.53684,0 6.60884,3.06301 6.60884,6.57965 0,1.83466 -0.9207,3.67158 -2.30625,4.89319 -7.07144,7.03775 -16.91172,11.1607 -27.5155,11.1607 -22.14176,0 -39.82597,-17.58316 -39.82597,-39.61712 0,-21.719575 17.68421,-39.30947 39.82597,-39.30947 z m 82.83643,0 c 4.15214,0 7.22414,3.211228 7.22414,6.422456 0,3.516632 -3.2247,6.732351 -7.22414,6.732351 -10.30063,0.303158 -19.82877,3.976982 -19.82877,19.271853 v 0 39.62386 c 0,3.36394 -3.23369,6.26527 -6.46063,6.26527 -3.53909,0 -6.61109,-2.90133 -6.61109,-6.26527 v 0 -65.167713 c 0,-3.368421 3.072,-6.274246 6.61109,-6.274246 3.08098,0 6.30119,2.755369 6.46063,5.966597 5.37824,-4.127439 12.29698,-6.426948 19.82877,-6.575158 z m 44.17594,13.002105 c -14.91087,0 -26.59031,11.625535 -26.59031,26.305125 0,14.84126 11.67944,26.4713 26.59031,26.4713 14.76267,0 26.45109,-11.63004 26.45109,-26.4713 0,-14.67958 -11.68842,-26.305125 -26.45109,-26.305125 z m 145.27417,0 c -14.91088,0 -26.59032,11.625535 -26.59032,26.305125 0,14.84126 11.67944,26.4713 26.59032,26.4713 14.76266,0 26.44884,-11.63004 26.44884,-26.4713 0,-14.67958 -11.68618,-26.305125 -26.44884,-26.305125 z m -272.28654,0.0022 c -12.07018,0 -21.98906,7.610386 -25.36871,18.218665 v 0 H 197.9153 C 194.53116,99.531902 184.62127,91.921516 172.7038,91.921515 Z M 510.1859,78.918961 c 0.69389,0 1.3047,0.613053 1.3047,1.304702 v 9.321544 c 0,0.478316 -0.37277,0.837614 -0.86681,0.837614 -0.47607,0 -0.86456,-0.377263 -0.86456,-0.837614 v -7.028772 c -0.4087,1.199158 -1.04421,3.085474 -1.52252,4.500211 -0.86905,2.575719 -0.90499,2.681263 -0.91846,2.70821 -0.19537,0.442386 -0.4873,0.673684 -0.86007,0.673684 -0.47607,0 -0.75452,-0.34807 -0.85558,-0.673684 l -2.46119,-7.226386 v 7.046737 c 0,0.478316 -0.37277,0.837614 -0.86232,0.837614 -0.47831,0 -0.8668,-0.377263 -0.8668,-0.837614 v -9.321544 c 0,-0.691649 0.60631,-1.304702 1.30245,-1.304702 0.55018,0 1.06667,0.397474 1.24856,0.961123 l 2.49488,7.291509 2.46568,-7.296 c 0.18415,-0.559158 0.70288,-0.956632 1.26204,-0.956632 z m -11.07716,0.05996 c 0.47831,0 0.83761,0.372772 0.83761,0.869053 0,0.47607 -0.37726,0.86007 -0.83761,0.86007 h -2.00309 v 8.836491 c 0,0.478316 -0.37053,0.837614 -0.86681,0.837614 -0.47607,0 -0.86456,-0.375017 -0.86456,-0.837614 v -8.836491 h -1.97389 c -0.4626,0 -0.83762,-0.384 -0.83762,-0.86007 0,-0.496281 0.3593,-0.869053 0.83762,-0.869053 z"
         id="Combined-Shape"
         style="fill:#d72a7f;fill-opacity:1"
         inkscape:connector-curvature="0"
         sodipodi:nodetypes="ccccccccccccccccccccccccccccccccccccccccccccccccccsccssccsscccssssccssccsscccsssccccccscccscsscssscscccssccssccssssssssssssccsssssscccsccssssscccsssscssscsssss" />
      <path
         style="fill:#004691;fill-opacity:1"
         d="m 65.945312,185.12695 c -5.917189,0 -10.71875,4.78779 -10.71875,10.72071 v 19.91992 c 0,5.93291 4.801561,10.7207 10.71875,10.7207 h 19.919922 c 5.92169,0 10.720704,-4.78779 10.720704,-10.7207 v -19.91992 c -10e-7,-5.93292 -4.799014,-10.72071 -10.720704,-10.72071 z"
         transform="translate(0,-11)"
         id="Combined-Shape-2"
         inkscape:connector-curvature="0"
         sodipodi:nodetypes="sssssssss" />
      <path
         inkscape:connector-curvature="0"
         style="fill:#b22787;fill-opacity:1"
         d="m 23.791024,127.51367 c -5.00772,0 -9.08008,4.06055 -9.08008,9.08399 v 16.83789 c 0,5.0212 4.07236,9.07422 9.08008,9.07422 h 16.84375 c 5.00771,0 9.07421,-4.05302 9.07421,-9.07422 v -16.83789 c 0,-5.02344 -4.0665,-9.08399 -9.07421,-9.08399 z"
         id="Combined-Shape-2-8"
         sodipodi:nodetypes="sssssssss" />
      <path
         inkscape:connector-curvature="0"
         style="fill:#71207a;fill-opacity:1"
         d="m 15.677734,48.335938 c -8.192,0 -14.84179,6.64978 -14.84179,14.841794 v 27.585936 c 0,8.20996 6.64979,14.839852 14.84179,14.839852 h 27.58399 c 8.19649,0 14.8457,-6.629892 14.8457,-14.839852 V 63.177732 c 0,-8.192014 -6.64921,-14.841794 -14.8457,-14.841794 z"
         id="Combined-Shape-2-8-7"
         sodipodi:nodetypes="sssssssss" />
      <path
         inkscape:connector-curvature="0"
         style="fill:#0d6db7;fill-opacity:1"
         d="m 82.16797,0.001946 c -7.296,0 -13.19727,5.90722 -13.19727,13.1875 v 24.523442 c 0,7.28252 5.90127,13.19141 13.19727,13.19141 h 24.51758 c 7.28702,0 13.1914,-5.90889 13.1914,-13.19141 V 13.189446 c 0,-7.28028 -5.90438,-13.1875 -13.1914,-13.1875 z"
         id="Combined-Shape-2-8-7-2"
         sodipodi:nodetypes="sssssssss" />
      <path
         inkscape:connector-curvature="0"
         style="fill:#004691;fill-opacity:1"
         d="m 145.06055,32.197271 c -4.10049,0 -7.41797,3.3289 -7.41797,7.431642 v 13.78125 c 0,4.08702 3.31748,7.41992 7.41797,7.41992 h 13.80273 c 4.096,0 7.41211,-3.3329 7.41211,-7.41992 v -13.78125 c 0,-4.102742 -3.31611,-7.431642 -7.41211,-7.431642 z"
         id="Combined-Shape-2-8-7-2-7"
         sodipodi:nodetypes="sssssssss" />
    </g>
  </g>
</svg>
